<svg width="280" height="214" viewBox="0 0 280 214" fill="none" xmlns="http://www.w3.org/2000/svg">
<g opacity="0.7">
<path d="M224.328 63.2493H224.267L188.961 78.325L140.655 98.9519C140.466 99.0313 140.264 99.0727 140.059 99.0738C139.854 99.0748 139.651 99.0355 139.462 98.958L89.6245 78.2819L53.4513 63.2739L53.396 63.2493H53.3345C52.7637 63.2499 52.2165 63.4769 51.8129 63.8805C51.4093 64.2841 51.1823 64.8313 51.1816 65.4021V158.895C51.1823 159.466 51.4093 160.013 51.8129 160.417C52.2165 160.82 52.7637 161.047 53.3345 161.048H224.328C224.899 161.047 225.446 160.82 225.85 160.417C226.253 160.013 226.48 159.466 226.481 158.895V65.4021C226.48 64.8313 226.253 64.2841 225.85 63.8805C225.446 63.4769 224.899 63.2499 224.328 63.2493Z" fill="white"/>
<path d="M224.482 63.8644C224.419 63.8644 224.358 63.8452 224.306 63.8093L139.252 4.57546C138.994 4.39603 138.686 4.30015 138.371 4.30068C138.056 4.30122 137.749 4.39815 137.491 4.57846L53.0497 63.8087C52.9829 63.8551 52.9004 63.8733 52.8203 63.8591C52.7401 63.8448 52.6689 63.7994 52.6222 63.7328C52.5754 63.6662 52.557 63.5837 52.5709 63.5036C52.5849 63.4234 52.63 63.352 52.6964 63.305L137.137 4.07482C137.499 3.82243 137.929 3.68676 138.37 3.68604C138.811 3.68531 139.242 3.81957 139.604 4.07076L224.658 63.3044C224.711 63.3418 224.752 63.3955 224.773 63.4574C224.794 63.5194 224.795 63.5865 224.775 63.649C224.756 63.7115 224.717 63.766 224.664 63.8048C224.611 63.8435 224.547 63.8644 224.482 63.8644Z" fill="#3F3D56"/>
<path d="M57.8748 65.9642L138.454 6.24463L219.646 70.2133L142.606 115.883L100.781 106.35L57.8748 65.9642Z" fill="#E6E6E6"/>
<path d="M104.311 144.092H64.5027C64.0095 144.092 63.5361 143.897 63.1868 143.549C62.8375 143.201 62.6409 142.728 62.6401 142.235C62.6394 141.741 62.8346 141.268 63.1829 140.919C63.5312 140.569 64.004 140.373 64.4972 140.372H104.311C104.804 140.371 105.278 140.567 105.627 140.915C105.976 141.263 106.173 141.736 106.174 142.229C106.174 142.722 105.979 143.196 105.631 143.545C105.283 143.894 104.81 144.091 104.317 144.092H104.311Z" fill="#F9F9F9"/>
<path d="M78.7853 136.096H64.5029C64.0098 136.096 63.5368 135.901 63.1878 135.552C62.8388 135.204 62.6423 134.732 62.6416 134.239C62.6409 133.746 62.8359 133.272 63.1839 132.923C63.5319 132.574 64.0044 132.377 64.4974 132.376H78.7853C79.0296 132.375 79.2717 132.423 79.4976 132.516C79.7235 132.609 79.9289 132.746 80.102 132.918C80.2751 133.091 80.4125 133.296 80.5064 133.521C80.6002 133.747 80.6488 133.989 80.6491 134.233C80.6495 134.477 80.6017 134.719 80.5085 134.945C80.4153 135.171 80.2784 135.376 80.1059 135.549C79.9333 135.722 79.7283 135.86 79.5027 135.953C79.277 136.047 79.0351 136.095 78.7908 136.096H78.7853Z" fill="#F9F9F9"/>
<path d="M139.588 99.2271C139.285 99.2274 138.985 99.1687 138.705 99.0542L89.0093 78.4338V13.8886C89.0099 13.3179 89.237 12.7707 89.6406 12.3671C90.0441 11.9635 90.5913 11.7365 91.1621 11.7358H186.5C187.071 11.7365 187.618 11.9635 188.022 12.3671C188.425 12.7707 188.652 13.3179 188.653 13.8886V78.4789L188.56 78.5188L140.497 99.0441C140.209 99.1651 139.9 99.2273 139.588 99.2271Z" fill="white"/>
<path d="M139.588 99.3807C139.265 99.381 138.945 99.3185 138.647 99.1966L88.8555 78.5365V13.8886C88.8562 13.2771 89.0994 12.6908 89.5318 12.2584C89.9642 11.826 90.5505 11.5827 91.162 11.582H186.5C187.112 11.5827 187.698 11.826 188.13 12.2584C188.563 12.6908 188.806 13.2771 188.807 13.8886V78.5804L140.557 99.1854C140.25 99.3146 139.921 99.381 139.588 99.3807ZM89.4705 78.1257L138.881 98.6279C139.342 98.8149 139.858 98.8118 140.317 98.6193L188.192 78.1743V13.8886C188.191 13.4402 188.013 13.0102 187.696 12.6931C187.379 12.376 186.949 12.1977 186.5 12.1971H91.162C90.7136 12.1977 90.2837 12.376 89.9666 12.6931C89.6495 13.0102 89.4711 13.4402 89.4706 13.8886L89.4705 78.1257Z" fill="#3F3D56"/>
<path d="M223.867 63.2493H223.805L188.499 78.325L140.194 98.9519C140.005 99.0313 139.802 99.0727 139.598 99.0738C139.393 99.0748 139.19 99.0355 139 98.958L89.1631 78.2819L52.9899 63.2739L52.9346 63.2493H52.873C52.3022 63.2499 51.7551 63.4769 51.3515 63.8805C50.9479 64.2841 50.7208 64.8313 50.7202 65.4021V158.895C50.7208 159.466 50.9479 160.013 51.3515 160.417C51.7551 160.82 52.3022 161.047 52.873 161.048H223.867C224.437 161.047 224.985 160.82 225.388 160.417C225.792 160.013 226.019 159.466 226.02 158.895V65.4021C226.019 64.8313 225.792 64.2841 225.388 63.8805C224.985 63.4769 224.437 63.2499 223.867 63.2493ZM225.404 158.895C225.404 159.303 225.242 159.694 224.954 159.982C224.666 160.271 224.275 160.433 223.867 160.433H52.873C52.4652 160.433 52.0742 160.271 51.7858 159.982C51.4975 159.694 51.3355 159.303 51.3353 158.895V65.4021C51.3359 65.0044 51.4901 64.6224 51.7658 64.3358C52.0415 64.0492 52.4172 63.8803 52.8146 63.8644L89.1631 78.9462L138.764 99.527C139.301 99.7455 139.902 99.7421 140.437 99.5178L188.499 78.9924L223.928 63.8644C224.325 63.8815 224.7 64.0509 224.975 64.3373C225.25 64.6237 225.404 65.0051 225.404 65.4021V158.895Z" fill="#3F3D56"/>
<path d="M131.851 35.8631H98.0213C97.3694 35.8621 96.7445 35.6025 96.2839 35.1412C95.8232 34.6799 95.5645 34.0546 95.5645 33.4027C95.5645 32.7508 95.8232 32.1255 96.2839 31.6642C96.7445 31.2029 97.3694 30.9433 98.0213 30.9424H131.851C132.503 30.9433 133.128 31.2029 133.589 31.6642C134.049 32.1255 134.308 32.7508 134.308 33.4027C134.308 34.0546 134.049 34.6799 133.589 35.1412C133.128 35.6025 132.503 35.8621 131.851 35.8631Z" fill="#F9F9F9"/>
<path d="M114.321 25.4065H98.0214C97.3688 25.4065 96.7431 25.1473 96.2817 24.6859C95.8203 24.2245 95.561 23.5987 95.561 22.9462C95.561 22.2937 95.8203 21.6679 96.2817 21.2065C96.7431 20.745 97.3688 20.4858 98.0214 20.4858H114.321C114.974 20.4858 115.599 20.745 116.061 21.2065C116.522 21.6679 116.781 22.2937 116.781 22.9462C116.781 23.5987 116.522 24.2245 116.061 24.6859C115.599 25.1473 114.974 25.4065 114.321 25.4065Z" fill="#F9F9F9"/>
<path d="M164.133 60.4663H112.466C111.814 60.4654 111.189 60.2058 110.729 59.7445C110.268 59.2832 110.009 58.6579 110.009 58.006C110.009 57.3541 110.268 56.7288 110.729 56.2675C111.189 55.8062 111.814 55.5466 112.466 55.5457H164.133C164.785 55.5466 165.41 55.8062 165.871 56.2675C166.331 56.7288 166.59 57.3541 166.59 58.006C166.59 58.6579 166.331 59.2832 165.871 59.7445C165.41 60.2058 164.785 60.4654 164.133 60.4663Z" fill="#CCCCCC"/>
<path d="M164.133 71.8455H112.466C111.814 71.8455 111.188 71.5863 110.726 71.1249C110.265 70.6635 110.006 70.0377 110.006 69.3851C110.006 68.7326 110.265 68.1068 110.726 67.6454C111.188 67.184 111.814 66.9248 112.466 66.9248H164.133C164.786 66.9248 165.412 67.184 165.873 67.6454C166.334 68.1068 166.594 68.7326 166.594 69.3851C166.594 70.0377 166.334 70.6635 165.873 71.1249C165.412 71.5863 164.786 71.8455 164.133 71.8455Z" fill="#CCCCCC"/>
<path d="M222.913 87.5354C235.834 87.5354 246.308 77.0613 246.308 64.1407C246.308 51.2202 235.834 40.7461 222.913 40.7461C209.993 40.7461 199.519 51.2202 199.519 64.1407C199.519 77.0613 209.993 87.5354 222.913 87.5354Z" fill="#F9F9F9"/>
<path d="M220.684 74.0164L213.682 65.0129L217.754 61.8459L221.069 66.1088L232.269 54.2854L236.015 57.8338L220.684 74.0164Z" fill="white"/>
<path d="M5.36122 23.3486C5.20153 23.2542 5.01847 23.2067 4.83303 23.2115C4.64759 23.2164 4.46726 23.2734 4.31272 23.376C4.15819 23.4786 4.03571 23.6227 3.9593 23.7918C3.8829 23.9608 3.85568 24.148 3.88075 24.3318L4.64318 29.9239C4.65366 30.0063 4.64803 30.09 4.6266 30.1703C4.60269 30.2494 4.56279 30.3227 4.50939 30.3857L0.239148 35.4446C0.0964924 35.6074 0.0127325 35.8135 0.00133803 36.0296C-0.0100564 36.2458 0.0515829 36.4596 0.176331 36.6365L0.180807 36.643C0.30031 36.8218 0.476208 36.9555 0.680496 37.0228C0.884784 37.0901 1.10571 37.0871 1.30811 37.0144L4.39198 35.9676C4.49422 35.9338 4.60372 35.9284 4.70877 35.9521C4.81382 35.9757 4.91047 36.0275 4.98837 36.1018C5.04648 36.1556 5.09283 36.2209 5.12448 36.2935C5.15613 36.3661 5.1724 36.4445 5.17229 36.5237L5.29283 47.5115C5.29408 47.6706 5.33405 47.8269 5.40927 47.9671C5.48448 48.1072 5.59269 48.227 5.72454 48.316C5.85592 48.4047 6.00668 48.4606 6.16417 48.479C6.32166 48.4973 6.48126 48.4776 6.62952 48.4214L29.6467 39.6186C29.8203 39.5526 29.9717 39.4389 30.0835 39.2906C30.1953 39.1424 30.2631 38.9656 30.2789 38.7806C30.2947 38.5955 30.258 38.4098 30.1729 38.2447C30.0879 38.0797 29.9579 37.9419 29.7981 37.8474L29.4847 37.6613L5.36122 23.3486ZM4.27042 24.278C4.25561 24.1677 4.27219 24.0554 4.31824 23.954C4.3643 23.8526 4.43798 23.7662 4.53084 23.7047C4.6237 23.6433 4.73199 23.6092 4.84331 23.6064C4.95463 23.6036 5.06449 23.6323 5.1603 23.689L29.2761 37.9975L29.5971 38.1878C29.6925 38.2448 29.77 38.3275 29.8206 38.4264C29.8713 38.5253 29.8932 38.6364 29.8838 38.7471C29.8744 38.8578 29.8341 38.9637 29.7675 39.0526C29.7008 39.1415 29.6106 39.21 29.507 39.2501L6.48976 48.0529C6.40073 48.0867 6.30486 48.0986 6.21026 48.0875C6.11567 48.0763 6.02516 48.0425 5.94642 47.9889C5.86769 47.9353 5.80304 47.8635 5.758 47.7796C5.71296 47.6957 5.68885 47.6021 5.68771 47.5069L5.5672 36.5192C5.56727 36.4105 5.5486 36.3026 5.51199 36.2002L28.9456 38.8927C29.037 38.9041 29.1295 38.8832 29.2071 38.8336C29.2847 38.7841 29.3426 38.709 29.3707 38.6213C29.3988 38.5336 29.3954 38.4388 29.361 38.3534C29.3266 38.2679 29.2635 38.1972 29.1825 38.1534C29.1628 38.1424 29.1421 38.1334 29.1207 38.1265L5.0399 30.0883C5.04574 30.0155 5.04337 29.9423 5.03285 29.8701L4.27042 24.278Z" fill="#F1F1F1"/>
<path d="M5.36122 23.3486C5.20153 23.2542 5.01847 23.2067 4.83303 23.2115C4.64759 23.2164 4.46726 23.2734 4.31272 23.376C4.15819 23.4786 4.03571 23.6227 3.9593 23.7918C3.8829 23.9608 3.85568 24.148 3.88075 24.3318L4.64318 29.9239C4.65366 30.0063 4.64803 30.09 4.6266 30.1703C4.60269 30.2494 4.56279 30.3227 4.50939 30.3857L0.239148 35.4446C0.0964924 35.6074 0.0127325 35.8135 0.00133803 36.0296C-0.0100564 36.2458 0.0515829 36.4596 0.176331 36.6365L0.180807 36.643C0.30031 36.8218 0.476208 36.9555 0.680496 37.0228C0.884784 37.0901 1.10571 37.0871 1.30811 37.0144L4.39198 35.9676C4.49422 35.9338 4.60372 35.9284 4.70877 35.9521C4.81382 35.9757 4.91047 36.0275 4.98837 36.1018C5.04648 36.1556 5.09283 36.2209 5.12448 36.2935C5.15613 36.3661 5.1724 36.4445 5.17229 36.5237L5.29283 47.5115C5.29408 47.6706 5.33405 47.8269 5.40927 47.9671C5.48448 48.1072 5.59269 48.227 5.72454 48.316C5.85592 48.4047 6.00668 48.4606 6.16417 48.479C6.32166 48.4973 6.48126 48.4776 6.62952 48.4214L29.6467 39.6186C29.8203 39.5526 29.9717 39.4389 30.0835 39.2906C30.1953 39.1424 30.2631 38.9656 30.2789 38.7806C30.2947 38.5955 30.258 38.4098 30.1729 38.2447C30.0879 38.0797 29.9579 37.9419 29.7981 37.8474L29.4847 37.6613L5.36122 23.3486ZM4.27042 24.278C4.25561 24.1677 4.27219 24.0554 4.31824 23.954C4.3643 23.8526 4.43798 23.7662 4.53084 23.7047C4.6237 23.6433 4.73199 23.6092 4.84331 23.6064C4.95463 23.6036 5.06449 23.6323 5.1603 23.689L29.2761 37.9975L29.5971 38.1878C29.6925 38.2448 29.77 38.3275 29.8206 38.4264C29.8713 38.5253 29.8932 38.6364 29.8838 38.7471C29.8744 38.8578 29.8341 38.9637 29.7675 39.0526C29.7008 39.1415 29.6106 39.21 29.507 39.2501L6.48976 48.0529C6.40073 48.0867 6.30485 48.0986 6.21026 48.0875C6.11567 48.0763 6.02516 48.0425 5.94642 47.9889C5.86769 47.9353 5.80306 47.8635 5.75802 47.7796C5.71298 47.6957 5.68885 47.6021 5.68771 47.5069L5.56718 36.5192C5.56725 36.4105 5.54858 36.3025 5.51198 36.2002C5.46041 36.0527 5.37362 35.9201 5.25917 35.8138C5.2436 35.7983 5.22641 35.7838 5.20918 35.7693L5.20808 35.7677C5.07878 35.6609 4.92436 35.589 4.75945 35.5587C4.59455 35.5284 4.42462 35.5407 4.26582 35.5945L1.18035 36.6424C1.05874 36.6865 0.925765 36.6883 0.803026 36.6474C0.680286 36.6065 0.574963 36.5253 0.504132 36.417L0.501886 36.4138C0.426173 36.308 0.388695 36.1797 0.395618 36.0498C0.402542 35.9199 0.45346 35.7963 0.539986 35.6992L4.81029 30.6404C4.85594 30.5874 4.89549 30.5295 4.92819 30.4677L4.92982 30.4665C4.96138 30.4073 4.98656 30.345 5.00492 30.2804C5.02339 30.2178 5.03512 30.1534 5.03992 30.0883C5.04575 30.0156 5.04339 29.9424 5.03286 29.8702L4.27042 24.278Z" fill="#E5E5E5"/>
<path d="M5.03993 30.0881L29.1208 38.1264C29.1422 38.1333 29.1628 38.1423 29.1825 38.1532C29.2635 38.197 29.3266 38.2678 29.361 38.3532C29.3954 38.4386 29.3988 38.5334 29.3707 38.6211C29.3426 38.7088 29.2848 38.7839 29.2071 38.8335C29.1295 38.883 29.037 38.9039 28.9457 38.8925L5.512 36.2L5.09817 36.1529L5.14399 35.7615L5.2081 35.7675L5.20919 35.7691L28.9904 38.4995L4.92984 30.4663L4.92821 30.4675L4.82422 30.4316L4.94911 30.0574L5.03993 30.0881Z" fill="#E5E5E5"/>
<path d="M273.909 0.137389L249.785 14.4501L249.472 14.6362C249.312 14.7308 249.182 14.8685 249.097 15.0336C249.012 15.1986 248.975 15.3844 248.991 15.5694C249.007 15.7544 249.074 15.9312 249.186 16.0795C249.298 16.2277 249.449 16.3414 249.623 16.4074L272.64 25.2102C272.789 25.2664 272.948 25.2862 273.106 25.2678C273.263 25.2495 273.414 25.1936 273.545 25.1048C273.677 25.0158 273.785 24.8961 273.86 24.7559C273.936 24.6157 273.976 24.4594 273.977 24.3003L274.097 13.3125C274.097 13.2333 274.114 13.155 274.145 13.0823C274.177 13.0097 274.223 12.9445 274.281 12.8906C274.359 12.8163 274.456 12.7645 274.561 12.7409C274.666 12.7173 274.776 12.7226 274.878 12.7565L277.962 13.8032C278.164 13.876 278.385 13.8789 278.589 13.8116C278.794 13.7443 278.969 13.6106 279.089 13.4318L279.093 13.4253C279.218 13.2484 279.28 13.0347 279.268 12.8185C279.257 12.6023 279.173 12.3962 279.031 12.2334L274.76 7.1745C274.707 7.1115 274.667 7.0382 274.643 6.95914C274.622 6.87884 274.616 6.79513 274.627 6.71268L275.389 1.12058C275.414 0.936776 275.387 0.749632 275.31 0.580591C275.234 0.41155 275.112 0.267461 274.957 0.164834C274.802 0.062207 274.622 0.00519324 274.437 0.000338222C274.251 -0.00451679 274.068 0.0429887 273.909 0.137389ZM274.999 1.06687L274.237 6.65895C274.226 6.73118 274.224 6.80437 274.23 6.87712L250.149 14.9153C250.128 14.9222 250.107 14.9312 250.087 14.9422C250.006 14.986 249.943 15.0567 249.909 15.1422C249.874 15.2276 249.871 15.3224 249.899 15.4101C249.927 15.4978 249.985 15.5729 250.063 15.6224C250.14 15.672 250.233 15.6929 250.324 15.6815L273.758 12.989C273.721 13.0914 273.703 13.1993 273.703 13.308L273.582 24.2957C273.581 24.3909 273.557 24.4845 273.512 24.5684C273.467 24.6523 273.402 24.7241 273.323 24.7777C273.245 24.8313 273.154 24.8651 273.06 24.8763C272.965 24.8874 272.869 24.8755 272.78 24.8417L249.763 16.0389C249.659 15.9988 249.569 15.9304 249.502 15.8414C249.436 15.7525 249.395 15.6466 249.386 15.5359C249.377 15.4252 249.398 15.3141 249.449 15.2152C249.5 15.1163 249.577 15.0336 249.673 14.9766L249.994 14.7863L274.109 0.477827C274.205 0.421077 274.315 0.392456 274.426 0.395236C274.538 0.398017 274.646 0.43209 274.739 0.493554C274.832 0.555018 274.905 0.641385 274.952 0.742773C274.998 0.844161 275.014 0.956504 274.999 1.06687Z" fill="#F1F1F1"/>
<path d="M273.909 0.137389L249.785 14.4501L249.472 14.6362C249.312 14.7308 249.182 14.8685 249.097 15.0336C249.012 15.1986 248.975 15.3844 248.991 15.5694C249.007 15.7544 249.074 15.9312 249.186 16.0795C249.298 16.2277 249.449 16.3414 249.623 16.4074L272.64 25.2102C272.789 25.2664 272.948 25.2862 273.106 25.2678C273.263 25.2495 273.414 25.1936 273.545 25.1048C273.677 25.0158 273.785 24.8961 273.86 24.7559C273.936 24.6157 273.976 24.4594 273.977 24.3003L274.097 13.3125C274.097 13.2333 274.114 13.155 274.145 13.0823C274.177 13.0097 274.223 12.9445 274.281 12.8906C274.359 12.8163 274.456 12.7645 274.561 12.7409C274.666 12.7173 274.776 12.7226 274.878 12.7565L277.962 13.8032C278.164 13.876 278.385 13.8789 278.589 13.8116C278.794 13.7443 278.969 13.6106 279.089 13.4318L279.093 13.4253C279.218 13.2484 279.28 13.0347 279.268 12.8185C279.257 12.6023 279.173 12.3962 279.031 12.2334L274.76 7.1745C274.707 7.1115 274.667 7.0382 274.643 6.95914C274.622 6.87884 274.616 6.79513 274.627 6.71268L275.389 1.12058C275.414 0.936776 275.387 0.749632 275.31 0.580591C275.234 0.41155 275.112 0.267461 274.957 0.164834C274.802 0.062207 274.622 0.00519324 274.437 0.000338222C274.251 -0.00451679 274.068 0.0429887 273.909 0.137389ZM274.999 1.06687L274.237 6.65897C274.226 6.73119 274.224 6.80438 274.23 6.87713C274.235 6.94223 274.246 7.00664 274.265 7.06925C274.283 7.13377 274.308 7.19615 274.34 7.25535L274.342 7.25647C274.374 7.31829 274.414 7.37623 274.459 7.42922L278.73 12.488C278.816 12.5851 278.867 12.7088 278.874 12.8386C278.881 12.9685 278.844 13.0969 278.768 13.2026L278.766 13.2058C278.695 13.3141 278.59 13.3953 278.467 13.4362C278.344 13.4771 278.211 13.4753 278.089 13.4312L275.004 12.3833C274.845 12.3295 274.675 12.3172 274.51 12.3475C274.345 12.3778 274.191 12.4497 274.062 12.5565L274.061 12.5581C274.043 12.5726 274.026 12.5871 274.011 12.6026C273.896 12.7089 273.809 12.8415 273.758 12.989C273.721 13.0914 273.702 13.1993 273.703 13.308L273.582 24.2957C273.581 24.3909 273.557 24.4845 273.512 24.5684C273.467 24.6523 273.402 24.7241 273.323 24.7777C273.245 24.8313 273.154 24.8651 273.059 24.8763C272.965 24.8874 272.869 24.8755 272.78 24.8417L249.763 16.0389C249.659 15.9988 249.569 15.9304 249.502 15.8414C249.436 15.7525 249.395 15.6467 249.386 15.5359C249.377 15.4252 249.398 15.3141 249.449 15.2152C249.5 15.1163 249.577 15.0336 249.673 14.9766L249.994 14.7863L274.109 0.477835C274.205 0.421084 274.315 0.392463 274.426 0.395244C274.538 0.398025 274.646 0.432098 274.739 0.493562C274.832 0.555025 274.905 0.641392 274.952 0.742781C274.998 0.844169 275.014 0.956504 274.999 1.06687Z" fill="#E5E5E5"/>
<path d="M274.321 6.84619L274.445 7.22037L274.341 7.25628L274.34 7.25517L250.279 15.2883L274.06 12.5579L274.062 12.5563L274.126 12.5503L274.171 12.9417L273.758 12.9888L250.324 15.6813C250.233 15.6927 250.14 15.6718 250.063 15.6223C249.985 15.5727 249.927 15.4976 249.899 15.4099C249.871 15.3222 249.874 15.2274 249.909 15.142C249.943 15.0566 250.006 14.9858 250.087 14.942C250.107 14.9311 250.127 14.9221 250.149 14.9152L274.23 6.87697L274.321 6.84619Z" fill="#E5E5E5"/>
<path d="M67.4832 200.121C67.3181 200.205 67.1801 200.335 67.0851 200.494C66.9901 200.653 66.9419 200.836 66.946 201.022C66.9502 201.207 67.0065 201.388 67.1086 201.543C67.2106 201.698 67.3543 201.821 67.523 201.898L72.657 204.242C72.7323 204.277 72.8 204.327 72.8565 204.388C72.9105 204.45 72.9512 204.523 72.9759 204.602L74.9696 210.915C75.031 211.122 75.1604 211.303 75.337 211.428C75.5137 211.553 75.7273 211.616 75.9435 211.605L75.9514 211.604C76.1664 211.599 76.3734 211.522 76.5395 211.385C76.7055 211.248 76.8211 211.06 76.8677 210.85L77.6311 207.684C77.6572 207.58 77.7111 207.484 77.7873 207.408C77.8634 207.332 77.9588 207.278 78.0632 207.252C78.1398 207.231 78.2197 207.227 78.298 207.239C78.3763 207.251 78.4512 207.279 78.5181 207.322L87.8696 213.092C88.0047 213.176 88.1582 213.226 88.3169 213.237C88.4756 213.248 88.6346 213.221 88.7803 213.157C88.9255 213.093 89.0533 212.996 89.153 212.873C89.2527 212.749 89.3213 212.604 89.353 212.448L94.2137 188.289C94.2507 188.107 94.2355 187.919 94.1699 187.745C94.1044 187.571 93.9911 187.42 93.8432 187.307C93.6953 187.195 93.5187 187.127 93.3337 187.111C93.1487 187.094 92.9629 187.13 92.7976 187.215L92.4728 187.38L67.4832 200.121ZM67.6859 201.54C67.5847 201.493 67.4986 201.419 67.4375 201.326C67.3764 201.233 67.3428 201.124 67.3405 201.013C67.3381 200.902 67.3672 200.792 67.4244 200.696C67.4815 200.601 67.5644 200.523 67.6636 200.473L92.6454 187.736L92.9778 187.567C93.077 187.517 93.1882 187.495 93.2989 187.505C93.4095 187.515 93.5152 187.556 93.6037 187.623C93.6923 187.691 93.7602 187.781 93.7998 187.885C93.8393 187.989 93.8489 188.102 93.8275 188.211L88.9668 212.37C88.9478 212.463 88.9066 212.55 88.8467 212.624C88.7867 212.698 88.7098 212.757 88.6224 212.795C88.535 212.833 88.4398 212.849 88.3448 212.842C88.2498 212.835 88.1578 212.806 88.0767 212.756L78.7253 206.986C78.6334 206.927 78.5323 206.885 78.4262 206.862L93.2254 188.494C93.2839 188.423 93.3157 188.334 93.3152 188.242C93.3148 188.149 93.2822 188.06 93.2231 187.99C93.164 187.919 93.0821 187.871 92.9915 187.855C92.9009 187.838 92.8074 187.854 92.7271 187.899C92.7073 187.91 92.6887 187.922 92.6714 187.937L73.008 203.994C72.9496 203.951 72.8865 203.913 72.8198 203.884L67.6859 201.54Z" fill="#F1F1F1"/>
<path d="M67.4832 200.121C67.3181 200.205 67.1801 200.335 67.0851 200.494C66.9901 200.653 66.9419 200.836 66.946 201.022C66.9502 201.207 67.0065 201.388 67.1086 201.543C67.2106 201.698 67.3543 201.821 67.523 201.898L72.657 204.242C72.7323 204.277 72.8 204.327 72.8565 204.388C72.9105 204.45 72.9512 204.523 72.9759 204.602L74.9696 210.915C75.031 211.122 75.1604 211.303 75.337 211.428C75.5137 211.553 75.7273 211.616 75.9435 211.605L75.9514 211.604C76.1664 211.599 76.3734 211.522 76.5395 211.385C76.7055 211.248 76.8211 211.06 76.8677 210.85L77.6311 207.684C77.6572 207.58 77.7111 207.484 77.7873 207.408C77.8634 207.332 77.9588 207.278 78.0632 207.252C78.1398 207.231 78.2197 207.227 78.298 207.239C78.3763 207.251 78.4512 207.279 78.5181 207.322L87.8696 213.092C88.0047 213.176 88.1582 213.226 88.3169 213.237C88.4756 213.248 88.6346 213.221 88.7803 213.157C88.9255 213.093 89.0533 212.996 89.153 212.873C89.2527 212.749 89.3213 212.604 89.353 212.448L94.2137 188.289C94.2507 188.107 94.2355 187.919 94.1699 187.745C94.1044 187.571 93.9911 187.42 93.8432 187.307C93.6953 187.195 93.5187 187.127 93.3337 187.111C93.1487 187.094 92.9629 187.13 92.7976 187.215L92.4728 187.38L67.4832 200.121ZM67.6859 201.54C67.5847 201.493 67.4986 201.419 67.4375 201.326C67.3764 201.233 67.3428 201.124 67.3405 201.013C67.3381 200.902 67.3672 200.792 67.4244 200.696C67.4815 200.601 67.5644 200.523 67.6636 200.473L92.6454 187.736L92.9778 187.567C93.077 187.517 93.1882 187.495 93.2989 187.505C93.4095 187.515 93.5152 187.556 93.6037 187.623C93.6923 187.691 93.7602 187.781 93.7998 187.885C93.8393 187.989 93.8489 188.102 93.8275 188.211L88.9668 212.37C88.9478 212.463 88.9066 212.55 88.8467 212.624C88.7867 212.698 88.7098 212.757 88.6224 212.795C88.535 212.833 88.4398 212.849 88.3448 212.842C88.2498 212.835 88.1578 212.806 88.0767 212.756L78.7253 206.986C78.6334 206.927 78.5322 206.885 78.4261 206.862C78.274 206.826 78.1155 206.829 77.9645 206.869C77.943 206.874 77.9216 206.881 77.9001 206.887L77.8982 206.887C77.7389 206.94 77.5955 207.032 77.4818 207.155C77.368 207.278 77.2877 207.428 77.2483 207.591L76.485 210.759C76.4573 210.886 76.3877 210.999 76.2875 211.081C76.1874 211.163 76.0625 211.208 75.9331 211.21L75.9292 211.21C75.7993 211.218 75.6708 211.181 75.5648 211.106C75.4587 211.031 75.3814 210.921 75.3456 210.796L73.3519 204.484C73.3315 204.417 73.3037 204.352 73.2689 204.292L73.2689 204.29C73.2357 204.231 73.1964 204.177 73.1517 204.127C73.1086 204.078 73.0605 204.033 73.008 203.994C72.9497 203.951 72.8865 203.913 72.8198 203.884L67.6859 201.54Z" fill="#E5E5E5"/>
<path d="M73.0081 203.994L92.6715 187.937C92.6888 187.922 92.7074 187.91 92.7272 187.899C92.8075 187.854 92.901 187.838 92.9916 187.855C93.0822 187.871 93.1641 187.919 93.2232 187.99C93.2824 188.06 93.3149 188.149 93.3153 188.242C93.3157 188.334 93.2839 188.423 93.2254 188.494L78.4262 206.862L78.1653 207.186L77.859 206.938L77.8983 206.887L77.9002 206.887L92.9172 188.246L73.269 204.29L73.2691 204.292L73.1831 204.36L72.9336 204.055L73.0081 203.994Z" fill="#E5E5E5"/>
</g>
</svg>
