<svg width="50" height="50" viewBox="0 0 50 50" fill="none" xmlns="http://www.w3.org/2000/svg">
<rect width="50" height="50" rx="25" fill="url(#paint0_radial_1_132)"/>
<path d="M22.2656 38.4033L10.6934 17.7979L10.4492 16.748V15.4785L10.6934 14.5264L11.1328 13.8184L11.6455 13.208L12.085 12.7686L13.0371 12.2314L13.5091 12.0269C13.571 11.9549 13.6562 11.9141 13.7695 11.9141H14.6729L15.7227 12.1094L16.5039 12.5L17.2607 13.1348L17.4805 13.3789L17.7734 13.7451L17.9932 14.0869L18.3838 14.6973L24.9512 26.4648L31.6895 14.6973L32.0312 14.0869L32.2998 13.7451L32.5928 13.3789L32.8613 13.1348L33.5693 12.5L34.5947 12.1094L35.4004 12.0117L36.2793 12.1094L36.9873 12.3535L37.6953 12.793L38.4277 13.3789L38.7451 13.8672L39.0381 14.4043L39.209 14.7949L39.3311 15.2588L39.3799 15.625L39.4043 16.748L39.3311 17.1143L39.1846 17.6758L38.8916 18.3105L38.623 18.7744L38.0615 19.751L27.71 37.7197L27.2461 38.4033L27.0264 38.623L26.7334 38.8916L26.2939 39.1602L25.7324 39.3311L24.8535 39.4287H24.3896L23.877 39.3311L23.2422 39.1602L22.7051 38.8184L22.2656 38.4033Z" fill="#F9F9F9"/>
<path d="M13.7695 11.9141L13.0371 12.2314L12.085 12.7686L11.6455 13.208L11.1328 13.8184L10.6934 14.5264L10.4492 15.4785V16.748L10.6934 17.7979L22.2656 38.4033L22.7051 38.8184L23.2422 39.1602L23.877 39.3311L24.3896 39.4287H24.8535L25.7324 39.3311L26.2939 39.1602L26.7334 38.8916L27.0264 38.623L27.2461 38.4033L27.71 37.7197L38.0615 19.751L38.623 18.7744L38.8916 18.3105L39.1846 17.6758L39.3311 17.1143L39.4043 16.748L39.3799 15.625L39.3311 15.2588L39.209 14.7949L39.0381 14.4043L38.7451 13.8672L38.4277 13.3789L37.6953 12.793L36.9873 12.3535L36.2793 12.1094M13.7695 11.9141H14.6729L15.7227 12.1094L16.5039 12.5L17.2607 13.1348L17.4805 13.3789L17.7734 13.7451L17.9932 14.0869L18.3838 14.6973L24.9512 26.4648L31.6895 14.6973L32.0312 14.0869L32.2998 13.7451L32.5928 13.3789L32.8613 13.1348L33.5693 12.5L34.5947 12.1094L35.4004 12.0117L36.2793 12.1094M13.7695 11.9141C13.0469 11.9141 13.4684 13.5742 13.7695 14.4043L24.9512 33.1787C28.3447 27.0508 35.6201 14.4043 35.6201 14.4043C35.6201 14.4043 36.9873 12.3535 36.2793 12.1094" stroke="#0468FE"/>
<path d="M25 33.0078V26.4404L31.0059 22.2656L31.7383 14.8438L36.3525 12.3291" stroke="#0468FE"/>
<path d="M25 33.0078V26.4327L18.6971 22.2529L18.2617 14.7217L13.3789 12.085" stroke="#0468FE"/>
<path d="M13.3301 12.3047L12.1338 20.166L18.5059 22.3145L17.4805 29.8584L24.9268 33.2031M24.9268 33.2031V39.4775M24.9268 33.2031L32.2266 29.8584L31.1523 22.3145L38.4277 18.9941L36.5234 12.3779" stroke="#0468FE"/>
<path d="M22.1191 38.2812L24.8535 33.1543L27.4902 38.2812" stroke="#0468FE"/>
<defs>
<radialGradient id="paint0_radial_1_132" cx="0" cy="0" r="1" gradientUnits="userSpaceOnUse" gradientTransform="translate(25 25) rotate(90) scale(25)">
<stop stop-color="#0066FF"/>
<stop offset="0.916667" stop-color="#0066FF"/>
</radialGradient>
</defs>
</svg>
