<svg width="104" height="104" viewBox="0 0 104 104" fill="none" xmlns="http://www.w3.org/2000/svg">
<path d="M0 52C0 23.2812 23.2812 0 52 0C80.7188 0 104 23.2812 104 52C104 80.7188 80.7188 104 52 104C23.2812 104 0 80.7188 0 52Z" fill="url(#paint0_radial_94_17)"/>
<path d="M23.57 38.466C21.3673 34.6509 22.6745 29.7726 26.4896 27.57C30.3046 25.3673 35.183 26.6745 37.3856 30.4896L41.3332 37.327L53.176 57.8393L65.0188 37.327L68.9664 30.4896C71.169 26.6745 76.0473 25.3673 79.8624 27.57C83.6775 29.7726 84.9846 34.6509 82.782 38.466L77.1464 48.2271L71.5108 57.9882L65.8753 67.7493L60.2397 77.5104C58.7357 80.1154 55.9843 81.5511 53.1756 81.4986C50.3672 81.5508 47.6161 80.1152 46.1123 77.5104L40.4767 67.7493L34.8411 57.9882L29.2056 48.2271L23.57 38.466Z" fill="#F9F9F9"/>
<path d="M23.0343 38.5332L22.9075 39.0066L23.2915 38.9836L28.655 48.2736L28.4868 48.7271H28.9169L34.2694 57.998L34.0487 58.4121L34.5364 58.4605L39.8844 67.7234L39.6044 68.1231L40.164 68.2077L45.6793 77.7604C47.276 80.5261 50.1959 82.0508 53.1756 81.9987C56.1556 82.0511 59.0758 80.5264 60.6727 77.7604L66.188 68.2078L66.7476 68.1232L66.4676 67.7234L71.8155 58.4605L72.3033 58.4121L72.0826 57.998L77.4412 48.7166L77.8681 48.7008L77.6996 48.2691L83.0641 38.9773L83.4405 38.9919L83.3176 38.5332C85.4802 34.5684 84.1479 29.5963 80.2927 27.244L80.1662 26.7719L79.8402 26.9863C75.8289 24.8594 70.822 26.2755 68.5334 30.2396L64.6451 36.9743L64.4818 37.0816L64.5007 37.2243L53.176 56.8393L41.8512 37.2243L41.8702 37.0816L41.7069 36.9743L37.8186 30.2396C35.53 26.2755 30.5231 24.8594 26.5118 26.9862L26.1858 26.7719L26.0593 27.244C22.2041 29.5963 20.8718 34.5684 23.0343 38.5332ZM23.4422 37.011C22.383 34.08 23.2686 30.7749 25.6514 28.7662L23.4422 37.011ZM24.2325 37.9254L26.6775 28.8004L32.1606 37.4502L24.2325 37.9254ZM24.4075 38.9167L32.3013 38.4435L29.1067 47.0559L24.4075 38.9167ZM29.9243 47.7271L33.1547 39.0184L38.675 47.7271L29.9243 47.7271ZM30.0716 48.7271L39.2088 48.7271L34.8236 56.9578L30.0716 48.7271ZM40.5174 66.8198L35.7612 58.5819L45.6043 59.5575L40.5174 66.8198ZM41.349 67.3755L46.4835 60.0454L52.1666 69.0107L41.349 67.3755ZM41.4291 68.399L52.1826 70.0245L46.2013 76.6646L41.4291 68.399ZM52.6756 80.9917C50.3287 80.8812 48.082 79.6683 46.733 77.5684L52.6758 70.9711L52.6756 80.9917ZM53.6756 80.9918L53.6758 70.971L59.619 77.5685C58.2699 79.6685 56.0228 80.8815 53.6756 80.9918ZM64.9229 68.399L60.1507 76.6646L54.1691 70.0245L64.9229 68.399ZM65.0029 67.3755L54.1851 69.0107L59.8682 60.0454L65.0029 67.3755ZM65.8346 66.8198L60.7474 59.5575L70.5908 58.5819L65.8346 66.8198ZM76.2613 48.7601L71.5284 56.9578L67.3362 49.0897L76.2613 48.7601ZM76.4247 47.7534L67.4501 48.0848L73.0842 39.1967L76.4247 47.7534ZM77.2337 47.0759L73.9341 38.6239L81.9347 38.9336L77.2337 47.0759ZM80.7006 28.7662C83.0833 30.7749 83.9689 34.08 82.9098 37.011L80.7006 28.7662ZM69.3994 30.7396C71.323 27.4078 75.4238 26.1167 78.8672 27.6258L66.506 35.7511L69.3994 30.7396ZM54.7203 56.1645L64.7168 38.8501L65.9832 48.382L54.7203 56.1645ZM53.676 58.1016L64.7802 50.4288L59.4252 58.8765L53.6758 67.9463L53.676 58.1016ZM52.676 58.1016L52.6758 67.9463L46.9266 58.8765L41.5716 50.4287L52.676 58.1016ZM51.6317 56.1645L40.3686 48.382L41.6352 38.8501L51.6317 56.1645ZM36.9526 30.7396L39.846 35.7511L27.4848 27.6258C30.9282 26.1167 35.029 27.4078 36.9526 30.7396ZM33.4591 37.6309L28.1546 29.2628L40.7962 37.5724L39.5183 47.1896L33.4591 37.6309ZM35.6335 57.5643L39.8702 49.6125L45.5327 58.5455L35.6335 57.5643ZM72.7685 37.827L66.8335 47.1896L65.5558 37.5724L78.1973 29.2628L72.7685 37.827ZM74.0782 37.6287L79.6745 28.8004L82.1235 37.9402L74.0782 37.6287ZM60.819 58.5455L66.4817 49.6125L70.7184 57.5643L60.819 58.5455ZM52 103.5C23.5573 103.5 0.5 80.4427 0.5 52C0.5 23.5573 23.5573 0.5 52 0.5C80.4427 0.5 103.5 23.5573 103.5 52C103.5 80.4427 80.4427 103.5 52 103.5Z" stroke="#0066FF"/>
<defs>
<radialGradient id="paint0_radial_94_17" cx="0" cy="0" r="1" gradientUnits="userSpaceOnUse" gradientTransform="translate(52 52) rotate(90) scale(52)">
<stop stop-color="#0066FF"/>
<stop offset="0.916667" stop-color="#0066FF"/>
</radialGradient>
</defs>
</svg>
