<svg width="343" height="286" viewBox="0 0 343 286" fill="none" xmlns="http://www.w3.org/2000/svg">
<path d="M0 8C0 3.58173 3.58172 0 8 0H343V286H7.99999C3.58172 286 0 282.418 0 278V8Z" fill="#F9F9F9"/>
<circle cx="31" cy="35" r="11" fill="#A1C7FF" stroke="#0066FF" stroke-width="2"/>
<path fill-rule="evenodd" clip-rule="evenodd" d="M30.8485 30.0404C30.9742 29.9865 31.1166 29.9865 31.2424 30.0404L34.7777 31.5556C35.0316 31.6644 35.1491 31.9583 35.0404 32.2121C34.9316 32.4659 34.6376 32.5835 34.3838 32.4747L31.0454 31.044L27.707 32.4747C27.4532 32.5835 27.1593 32.4659 27.0505 32.2121C26.9417 31.9583 27.0593 31.6644 27.3131 31.5556L30.8485 30.0404ZM26.5 33.5354C26.2239 33.5354 26 33.7593 26 34.0354C26 34.3115 26.2239 34.5354 26.5 34.5354H26.505V39.0909H26.5C26.2239 39.0909 26 39.3148 26 39.5909C26 39.8671 26.2239 40.0909 26.5 40.0909H26.9996L27.005 40.091L27.0104 40.0909H35.0805L35.0859 40.091L35.0913 40.0909H35.5909C35.8671 40.0909 36.0909 39.8671 36.0909 39.5909C36.0909 39.3148 35.8671 39.0909 35.5909 39.0909H35.5859V34.5354H35.5909C35.8671 34.5354 36.0909 34.3115 36.0909 34.0354C36.0909 33.7593 35.8671 33.5354 35.5909 33.5354H35.0859H27.005H26.5ZM34.5859 34.5354V39.0909H27.505V34.5354H34.5859ZM29.5252 36.0555C29.5252 35.7794 29.3014 35.5555 29.0252 35.5555C28.7491 35.5555 28.5252 35.7794 28.5252 36.0555V37.5707C28.5252 37.8468 28.7491 38.0707 29.0252 38.0707C29.3014 38.0707 29.5252 37.8468 29.5252 37.5707V36.0555ZM31.0455 35.5555C31.3216 35.5555 31.5455 35.7794 31.5455 36.0555V37.5707C31.5455 37.8468 31.3216 38.0707 31.0455 38.0707C30.7693 38.0707 30.5455 37.8468 30.5455 37.5707V36.0555C30.5455 35.7794 30.7693 35.5555 31.0455 35.5555ZM33.5657 36.0555C33.5657 35.7794 33.3418 35.5555 33.0657 35.5555C32.7895 35.5555 32.5657 35.7794 32.5657 36.0555V37.5707C32.5657 37.8468 32.7895 38.0707 33.0657 38.0707C33.3418 38.0707 33.5657 37.8468 33.5657 37.5707V36.0555Z" fill="#0468FE" fill-opacity="0.5"/>
<g clip-path="url(#clip0_1_221)">
<path d="M24.3333 86.3334H29.3333V93H24.3333V86.3334Z" stroke="#A1C7FF" stroke-width="2" stroke-linecap="round" stroke-linejoin="round"/>
<path d="M24.3333 96.3334H29.3333V99.6667H24.3333V96.3334Z" stroke="#A1C7FF" stroke-width="2" stroke-linecap="round" stroke-linejoin="round"/>
<path d="M32.6667 93H37.6667V99.6667H32.6667V93Z" stroke="#A1C7FF" stroke-width="2" stroke-linecap="round" stroke-linejoin="round"/>
<path d="M32.6667 86.3334H37.6667V89.6667H32.6667V86.3334Z" stroke="#A1C7FF" stroke-width="2" stroke-linecap="round" stroke-linejoin="round"/>
</g>
<g clip-path="url(#clip1_1_221)">
<path d="M23.5 122.333C23.5 123.099 23.6509 123.858 23.944 124.566C24.2372 125.273 24.6669 125.916 25.2085 126.458C25.7502 127 26.3933 127.429 27.101 127.723C27.8087 128.016 28.5673 128.167 29.3333 128.167C30.0994 128.167 30.8579 128.016 31.5657 127.723C32.2734 127.429 32.9164 127 33.4581 126.458C33.9998 125.916 34.4295 125.273 34.7226 124.566C35.0158 123.858 35.1667 123.099 35.1667 122.333C35.1667 121.567 35.0158 120.809 34.7226 120.101C34.4295 119.393 33.9998 118.75 33.4581 118.209C32.9164 117.667 32.2734 117.237 31.5657 116.944C30.8579 116.651 30.0994 116.5 29.3333 116.5C28.5673 116.5 27.8087 116.651 27.101 116.944C26.3933 117.237 25.7502 117.667 25.2085 118.209C24.6669 118.75 24.2372 119.393 23.944 120.101C23.6509 120.809 23.5 121.567 23.5 122.333Z" stroke="#0066FF" stroke-width="2" stroke-linecap="round" stroke-linejoin="round"/>
<path d="M38.5 131.5L33.5 126.5" stroke="#0066FF" stroke-width="2" stroke-linecap="round" stroke-linejoin="round"/>
</g>
<g clip-path="url(#clip2_1_221)">
<path d="M31 149.167V160.833" stroke="#A1C7FF" stroke-width="2" stroke-linecap="round" stroke-linejoin="round"/>
<path d="M25.1667 155H36.8334" stroke="#A1C7FF" stroke-width="2" stroke-linecap="round" stroke-linejoin="round"/>
</g>
<g clip-path="url(#clip3_1_221)">
<path d="M29.6042 179.598C29.9592 178.134 32.0408 178.134 32.3958 179.598C32.4491 179.817 32.5535 180.021 32.7006 180.193C32.8477 180.365 33.0332 180.5 33.2422 180.586C33.4512 180.673 33.6776 180.709 33.9032 180.692C34.1287 180.674 34.3469 180.604 34.54 180.486C35.8258 179.702 37.2983 181.174 36.515 182.461C36.3974 182.654 36.327 182.872 36.3096 183.097C36.2922 183.323 36.3281 183.549 36.4146 183.758C36.5011 183.967 36.6356 184.152 36.8073 184.299C36.9789 184.446 37.1829 184.551 37.4025 184.604C38.8658 184.959 38.8658 187.041 37.4025 187.396C37.1827 187.449 36.9785 187.554 36.8067 187.701C36.6348 187.848 36.5001 188.033 36.4135 188.242C36.327 188.451 36.291 188.678 36.3084 188.903C36.3259 189.129 36.3964 189.347 36.5142 189.54C37.2975 190.826 35.8258 192.298 34.5392 191.515C34.3461 191.397 34.1281 191.327 33.9027 191.31C33.6773 191.292 33.451 191.328 33.2422 191.415C33.0333 191.501 32.8479 191.636 32.7008 191.807C32.5537 191.979 32.4492 192.183 32.3958 192.403C32.0408 193.866 29.9592 193.866 29.6042 192.403C29.5509 192.183 29.4465 191.979 29.2994 191.807C29.1523 191.635 28.9668 191.5 28.7578 191.414C28.5488 191.327 28.3224 191.291 28.0968 191.308C27.8713 191.326 27.6531 191.396 27.46 191.514C26.1742 192.298 24.7017 190.826 25.485 189.539C25.6026 189.346 25.673 189.128 25.6904 188.903C25.7078 188.677 25.6719 188.451 25.5854 188.242C25.4989 188.033 25.3644 187.848 25.1927 187.701C25.0211 187.554 24.8171 187.449 24.5975 187.396C23.1342 187.041 23.1342 184.959 24.5975 184.604C24.8173 184.551 25.0215 184.446 25.1933 184.299C25.3652 184.152 25.4999 183.967 25.5865 183.758C25.673 183.549 25.709 183.322 25.6916 183.097C25.6741 182.871 25.6036 182.653 25.4858 182.46C24.7025 181.174 26.1742 179.702 27.4608 180.485C28.2942 180.992 29.3742 180.543 29.6042 179.598Z" stroke="#A1C7FF" stroke-width="2" stroke-linecap="round" stroke-linejoin="round"/>
<path d="M28.5 186C28.5 186.663 28.7634 187.299 29.2322 187.768C29.7011 188.237 30.337 188.5 31 188.5C31.663 188.5 32.2989 188.237 32.7678 187.768C33.2366 187.299 33.5 186.663 33.5 186C33.5 185.337 33.2366 184.701 32.7678 184.232C32.2989 183.763 31.663 183.5 31 183.5C30.337 183.5 29.7011 183.763 29.2322 184.232C28.7634 184.701 28.5 185.337 28.5 186Z" stroke="#A1C7FF" stroke-width="2" stroke-linecap="round" stroke-linejoin="round"/>
</g>
<g clip-path="url(#clip4_1_221)">
<path d="M29.3333 254.667V253C29.3333 252.558 29.5089 252.134 29.8215 251.822C30.134 251.509 30.558 251.333 31 251.333H36.8333C37.2753 251.333 37.6993 251.509 38.0118 251.822C38.3244 252.134 38.5 252.558 38.5 253V263C38.5 263.442 38.3244 263.866 38.0118 264.179C37.6993 264.491 37.2753 264.667 36.8333 264.667H31C30.558 264.667 30.134 264.491 29.8215 264.179C29.5089 263.866 29.3333 263.442 29.3333 263V261.333" stroke="#A1C7FF" stroke-width="2" stroke-linecap="round" stroke-linejoin="round"/>
<path d="M33.5 258H23.5L26 255.5" stroke="#A1C7FF" stroke-width="2" stroke-linecap="round" stroke-linejoin="round"/>
<path d="M26 260.5L23.5 258" stroke="#A1C7FF" stroke-width="2" stroke-linecap="round" stroke-linejoin="round"/>
</g>
<path d="M56.0338 39L58.3018 34.74L56.0938 30.6H57.9538L59.6338 33.936L61.3138 30.6H63.1258L60.9178 34.74L63.1858 39H61.3258L59.5858 35.544L57.8458 39H56.0338ZM65.4098 35.508L63.2498 30.6H65.0378L66.5018 34.116L66.7658 34.824H66.7898L67.0538 34.116L68.5178 30.6H70.2938L68.1218 35.508H67.5938V39H65.9498V35.508H65.4098ZM70.9091 39V37.272L74.6171 32.16H70.9091V30.6H76.3811V32.328L72.6731 37.44H76.5011V39H70.9091ZM86.4762 32.676C85.6362 32.28 84.9282 32.052 84.1722 32.052C82.4922 32.052 81.3882 33.252 81.3882 34.8C81.3882 36.324 82.4922 37.548 84.1722 37.548C84.9282 37.548 85.6242 37.308 86.4762 36.924V38.652C85.8402 38.916 85.0602 39.132 84.1242 39.132C81.5322 39.132 79.6962 37.32 79.6962 34.8C79.6962 32.28 81.5322 30.468 84.1242 30.468C85.0602 30.468 85.8402 30.684 86.4762 30.948V32.676ZM90.4876 32.136C92.5516 32.136 94.0036 33.66 94.0036 35.64C94.0036 37.62 92.5516 39.144 90.4876 39.144C88.4356 39.144 86.9836 37.62 86.9836 35.64C86.9836 33.66 88.4356 32.136 90.4876 32.136ZM88.6276 35.64C88.6276 36.744 89.3476 37.608 90.4876 37.608C91.6396 37.608 92.3596 36.744 92.3596 35.64C92.3596 34.536 91.6396 33.672 90.4876 33.672C89.3476 33.672 88.6276 34.536 88.6276 35.64ZM94.8168 32.28H96.4248V33.768C96.7968 32.76 97.5288 32.172 98.7648 32.172V33.912C98.5728 33.888 98.3448 33.876 98.1408 33.876C96.9768 33.876 96.4488 34.548 96.4488 35.88V39H94.8168V32.28ZM100.924 35.64C100.924 36.744 101.632 37.656 102.82 37.656C103.984 37.656 104.692 36.744 104.692 35.64C104.692 34.536 103.984 33.624 102.82 33.624C101.632 33.624 100.924 34.536 100.924 35.64ZM99.3402 41.28V32.28H100.924V33.432C101.428 32.58 102.244 32.136 103.24 32.136C104.968 32.136 106.336 33.492 106.336 35.64C106.336 37.788 104.968 39.144 103.24 39.144C102.232 39.144 101.428 38.688 100.972 37.8V41.28H99.3402ZM106.899 37.296H108.699V39H106.899V37.296Z" fill="#0066FF"/>
<rect x="64" y="93" width="244" height="85" fill="#D9D9D9"/>
<rect x="64" y="186" width="244" height="74" fill="#D9D9D9"/>
<rect x="64" y="60" width="244" height="20" fill="#D9D9D9"/>
<defs>
<clipPath id="clip0_1_221">
<rect width="20" height="20" fill="white" transform="translate(21 83)"/>
</clipPath>
<clipPath id="clip1_1_221">
<rect width="20" height="20" fill="white" transform="translate(21 114)"/>
</clipPath>
<clipPath id="clip2_1_221">
<rect width="20" height="20" fill="white" transform="translate(21 145)"/>
</clipPath>
<clipPath id="clip3_1_221">
<rect width="20" height="20" fill="white" transform="translate(21 176)"/>
</clipPath>
<clipPath id="clip4_1_221">
<rect width="20" height="20" fill="white" transform="translate(21 248)"/>
</clipPath>
</defs>
</svg>
